<svg width="154" height="18" viewBox="0 0 154 18" fill="none" xmlns="http://www.w3.org/2000/svg">
<path d="M12.7539 9.72266V14H11.3989V3.33594H14.856C15.3345 3.3457 15.7861 3.42139 16.2109 3.56299C16.6406 3.70459 17.0166 3.90967 17.3389 4.17822C17.6611 4.44678 17.915 4.77881 18.1006 5.17432C18.291 5.56982 18.3862 6.02393 18.3862 6.53662C18.3862 7.04932 18.291 7.50342 18.1006 7.89893C17.915 8.28955 17.6611 8.61914 17.3389 8.8877C17.0166 9.15625 16.6406 9.36133 16.2109 9.50293C15.7861 9.64453 15.3345 9.71777 14.856 9.72266H12.7539ZM12.7539 8.60938H14.856C15.1685 8.60449 15.4565 8.55566 15.7202 8.46289C15.9839 8.36523 16.2134 8.22852 16.4087 8.05273C16.604 7.87695 16.7554 7.66455 16.8628 7.41553C16.9751 7.16162 17.0312 6.87354 17.0312 6.55127C17.0312 6.229 16.9751 5.93848 16.8628 5.67969C16.7554 5.4209 16.604 5.20117 16.4087 5.02051C16.2183 4.83984 15.9888 4.70068 15.7202 4.60303C15.4565 4.50537 15.1685 4.4541 14.856 4.44922H12.7539V8.60938ZM25.4907 14C25.437 13.8975 25.3931 13.7705 25.3589 13.6191C25.3296 13.4629 25.3076 13.3018 25.293 13.1357C25.1562 13.2725 25.0024 13.4019 24.8315 13.5239C24.6655 13.646 24.48 13.7534 24.2749 13.8462C24.0747 13.939 23.8599 14.0122 23.6304 14.0659C23.4009 14.1196 23.1567 14.1465 22.8979 14.1465C22.478 14.1465 22.0972 14.0854 21.7554 13.9634C21.4185 13.8413 21.1304 13.6777 20.8911 13.4727C20.6567 13.2627 20.4736 13.0161 20.3418 12.7329C20.2148 12.4448 20.1514 12.1348 20.1514 11.8027C20.1514 11.3682 20.2368 10.9873 20.4077 10.6602C20.5835 10.333 20.8301 10.062 21.1475 9.84717C21.4648 9.62744 21.8457 9.46387 22.29 9.35645C22.7393 9.24902 23.2397 9.19531 23.7915 9.19531H25.271V8.57275C25.271 8.3335 25.2271 8.11865 25.1392 7.92822C25.0513 7.73779 24.9268 7.57666 24.7656 7.44482C24.6045 7.30811 24.4067 7.20312 24.1724 7.12988C23.9429 7.05664 23.6841 7.02002 23.396 7.02002C23.1274 7.02002 22.8857 7.0542 22.6709 7.12256C22.4609 7.19092 22.2827 7.28125 22.1362 7.39355C21.9897 7.50586 21.875 7.64014 21.792 7.79639C21.7139 7.94775 21.6748 8.10645 21.6748 8.27246H20.3125C20.3174 7.98438 20.3906 7.70117 20.5322 7.42285C20.6787 7.14453 20.8862 6.89551 21.1548 6.67578C21.4282 6.45117 21.7578 6.27051 22.1436 6.13379C22.5342 5.99707 22.9761 5.92871 23.4692 5.92871C23.9185 5.92871 24.3359 5.98486 24.7217 6.09717C25.1074 6.20459 25.4395 6.37061 25.7178 6.59521C26.001 6.81494 26.2231 7.09082 26.3843 7.42285C26.5454 7.75488 26.626 8.14307 26.626 8.5874V12.2715C26.626 12.5352 26.6504 12.8159 26.6992 13.1138C26.748 13.4067 26.8164 13.6631 26.9043 13.8828V14H25.4907ZM23.0957 12.9673C23.3594 12.9673 23.606 12.9331 23.8354 12.8647C24.0649 12.7964 24.2725 12.7061 24.458 12.5938C24.6484 12.4814 24.812 12.3545 24.9487 12.2129C25.0854 12.0664 25.1929 11.915 25.271 11.7588V10.1548H24.0112C23.2202 10.1548 22.605 10.272 22.1655 10.5063C21.7261 10.7407 21.5063 11.1094 21.5063 11.6123C21.5063 11.8076 21.5381 11.9883 21.6016 12.1543C21.6699 12.3203 21.77 12.4644 21.9019 12.5864C22.0337 12.7036 22.1997 12.7964 22.3999 12.8647C22.6001 12.9331 22.832 12.9673 23.0957 12.9673ZM32.3975 12.0518L32.522 12.5425L32.6538 12.0518L34.873 6.0752H36.2573L33.0273 14H31.9946L28.7354 6.0752H30.127L32.3975 12.0518ZM41.8018 14.1465C41.2451 14.1465 40.7324 14.0513 40.2637 13.8608C39.7998 13.6704 39.4019 13.4043 39.0698 13.0625C38.7378 12.7207 38.479 12.3154 38.2935 11.8467C38.1079 11.3779 38.0151 10.8677 38.0151 10.3159V10.0083C38.0151 9.36865 38.1177 8.79736 38.3228 8.29443C38.5278 7.78662 38.7988 7.35938 39.1357 7.0127C39.4775 6.66113 39.8633 6.39258 40.293 6.20703C40.7275 6.02148 41.1719 5.92871 41.626 5.92871C42.1973 5.92871 42.6953 6.02881 43.1201 6.229C43.5498 6.42432 43.9062 6.69775 44.1895 7.04932C44.4727 7.396 44.6826 7.80615 44.8193 8.27979C44.9609 8.75342 45.0317 9.26611 45.0317 9.81787V10.4258H39.3701C39.3848 10.7871 39.4531 11.1265 39.5752 11.4438C39.7021 11.7612 39.873 12.0396 40.0879 12.2788C40.3076 12.5132 40.5688 12.6987 40.8716 12.8354C41.1743 12.9722 41.5088 13.0405 41.875 13.0405C42.3584 13.0405 42.7881 12.9429 43.1641 12.7476C43.54 12.5522 43.8525 12.2935 44.1016 11.9712L44.9292 12.6157C44.7974 12.8159 44.6313 13.0088 44.4312 13.1943C44.2358 13.375 44.0088 13.5361 43.75 13.6777C43.4912 13.8193 43.1982 13.9316 42.8711 14.0146C42.5439 14.1025 42.1875 14.1465 41.8018 14.1465ZM41.626 7.04199C41.3525 7.04199 41.0938 7.09326 40.8496 7.1958C40.6055 7.29346 40.3857 7.43994 40.1904 7.63525C39.9951 7.82568 39.8291 8.0625 39.6924 8.3457C39.5605 8.62402 39.4678 8.94629 39.4141 9.3125H43.6768V9.20996C43.6621 8.94629 43.6108 8.68506 43.5229 8.42627C43.4399 8.16748 43.3154 7.93555 43.1494 7.73047C42.9834 7.52539 42.7734 7.35938 42.5195 7.23242C42.2705 7.10547 41.9727 7.04199 41.626 7.04199ZM47.522 2.75H51.5723V12.8281H54.1577V14H47.522V12.8281H50.2173V3.9292H47.522V2.75ZM63.5107 4.49316H60.2148V14H58.8965V4.49316H55.6006V3.33594H63.5107V4.49316ZM70.5347 14C70.481 13.8975 70.437 13.7705 70.4028 13.6191C70.3735 13.4629 70.3516 13.3018 70.3369 13.1357C70.2002 13.2725 70.0464 13.4019 69.8755 13.5239C69.7095 13.646 69.5239 13.7534 69.3188 13.8462C69.1187 13.939 68.9038 14.0122 68.6743 14.0659C68.4448 14.1196 68.2007 14.1465 67.9419 14.1465C67.522 14.1465 67.1411 14.0854 66.7993 13.9634C66.4624 13.8413 66.1743 13.6777 65.9351 13.4727C65.7007 13.2627 65.5176 13.0161 65.3857 12.7329C65.2588 12.4448 65.1953 12.1348 65.1953 11.8027C65.1953 11.3682 65.2808 10.9873 65.4517 10.6602C65.6274 10.333 65.874 10.062 66.1914 9.84717C66.5088 9.62744 66.8896 9.46387 67.334 9.35645C67.7832 9.24902 68.2837 9.19531 68.8354 9.19531H70.3149V8.57275C70.3149 8.3335 70.271 8.11865 70.1831 7.92822C70.0952 7.73779 69.9707 7.57666 69.8096 7.44482C69.6484 7.30811 69.4507 7.20312 69.2163 7.12988C68.9868 7.05664 68.728 7.02002 68.4399 7.02002C68.1714 7.02002 67.9297 7.0542 67.7148 7.12256C67.5049 7.19092 67.3267 7.28125 67.1802 7.39355C67.0337 7.50586 66.9189 7.64014 66.8359 7.79639C66.7578 7.94775 66.7188 8.10645 66.7188 8.27246H65.3564C65.3613 7.98438 65.4346 7.70117 65.5762 7.42285C65.7227 7.14453 65.9302 6.89551 66.1987 6.67578C66.4722 6.45117 66.8018 6.27051 67.1875 6.13379C67.5781 5.99707 68.02 5.92871 68.5132 5.92871C68.9624 5.92871 69.3799 5.98486 69.7656 6.09717C70.1514 6.20459 70.4834 6.37061 70.7617 6.59521C71.0449 6.81494 71.2671 7.09082 71.4282 7.42285C71.5894 7.75488 71.6699 8.14307 71.6699 8.5874V12.2715C71.6699 12.5352 71.6943 12.8159 71.7432 13.1138C71.792 13.4067 71.8604 13.6631 71.9482 13.8828V14H70.5347ZM68.1396 12.9673C68.4033 12.9673 68.6499 12.9331 68.8794 12.8647C69.1089 12.7964 69.3164 12.7061 69.502 12.5938C69.6924 12.4814 69.856 12.3545 69.9927 12.2129C70.1294 12.0664 70.2368 11.915 70.3149 11.7588V10.1548H69.0552C68.2642 10.1548 67.6489 10.272 67.2095 10.5063C66.77 10.7407 66.5503 11.1094 66.5503 11.6123C66.5503 11.8076 66.582 11.9883 66.6455 12.1543C66.7139 12.3203 66.814 12.4644 66.9458 12.5864C67.0776 12.7036 67.2437 12.7964 67.4438 12.8647C67.644 12.9331 67.876 12.9673 68.1396 12.9673ZM79.5288 5.92871C79.6558 5.92871 79.7876 5.93359 79.9243 5.94336C80.061 5.94824 80.1904 5.96045 80.3125 5.97998C80.4395 5.99463 80.5542 6.01416 80.6567 6.03857C80.7642 6.06299 80.8521 6.08984 80.9204 6.11914L80.7373 7.44482C80.4736 7.38623 80.2222 7.34473 79.9829 7.32031C79.7485 7.29102 79.502 7.27637 79.2432 7.27637C78.6084 7.27637 78.0933 7.42041 77.6978 7.7085C77.3071 7.99658 77.019 8.39941 76.8335 8.91699V14H75.4712V6.0752H76.7603L76.8262 7.33496C77.1484 6.90039 77.5342 6.55859 77.9834 6.30957C78.4375 6.05566 78.9526 5.92871 79.5288 5.92871ZM88.5522 14C88.4985 13.8975 88.4546 13.7705 88.4204 13.6191C88.3911 13.4629 88.3691 13.3018 88.3545 13.1357C88.2178 13.2725 88.064 13.4019 87.8931 13.5239C87.7271 13.646 87.5415 13.7534 87.3364 13.8462C87.1362 13.939 86.9214 14.0122 86.6919 14.0659C86.4624 14.1196 86.2183 14.1465 85.9595 14.1465C85.5396 14.1465 85.1587 14.0854 84.8169 13.9634C84.48 13.8413 84.1919 13.6777 83.9526 13.4727C83.7183 13.2627 83.5352 13.0161 83.4033 12.7329C83.2764 12.4448 83.2129 12.1348 83.2129 11.8027C83.2129 11.3682 83.2983 10.9873 83.4692 10.6602C83.645 10.333 83.8916 10.062 84.209 9.84717C84.5264 9.62744 84.9072 9.46387 85.3516 9.35645C85.8008 9.24902 86.3013 9.19531 86.853 9.19531H88.3325V8.57275C88.3325 8.3335 88.2886 8.11865 88.2007 7.92822C88.1128 7.73779 87.9883 7.57666 87.8271 7.44482C87.666 7.30811 87.4683 7.20312 87.2339 7.12988C87.0044 7.05664 86.7456 7.02002 86.4575 7.02002C86.189 7.02002 85.9473 7.0542 85.7324 7.12256C85.5225 7.19092 85.3442 7.28125 85.1978 7.39355C85.0513 7.50586 84.9365 7.64014 84.8535 7.79639C84.7754 7.94775 84.7363 8.10645 84.7363 8.27246H83.374C83.3789 7.98438 83.4521 7.70117 83.5938 7.42285C83.7402 7.14453 83.9478 6.89551 84.2163 6.67578C84.4897 6.45117 84.8193 6.27051 85.2051 6.13379C85.5957 5.99707 86.0376 5.92871 86.5308 5.92871C86.98 5.92871 87.3975 5.98486 87.7832 6.09717C88.1689 6.20459 88.501 6.37061 88.7793 6.59521C89.0625 6.81494 89.2847 7.09082 89.4458 7.42285C89.6069 7.75488 89.6875 8.14307 89.6875 8.5874V12.2715C89.6875 12.5352 89.7119 12.8159 89.7607 13.1138C89.8096 13.4067 89.8779 13.6631 89.9658 13.8828V14H88.5522ZM86.1572 12.9673C86.4209 12.9673 86.6675 12.9331 86.897 12.8647C87.1265 12.7964 87.334 12.7061 87.5195 12.5938C87.71 12.4814 87.8735 12.3545 88.0103 12.2129C88.147 12.0664 88.2544 11.915 88.3325 11.7588V10.1548H87.0728C86.2817 10.1548 85.6665 10.272 85.2271 10.5063C84.7876 10.7407 84.5679 11.1094 84.5679 11.6123C84.5679 11.8076 84.5996 11.9883 84.6631 12.1543C84.7314 12.3203 84.8315 12.4644 84.9634 12.5864C85.0952 12.7036 85.2612 12.7964 85.4614 12.8647C85.6616 12.9331 85.8936 12.9673 86.1572 12.9673ZM97.6196 11.8979C97.6196 11.7368 97.5879 11.5928 97.5244 11.4658C97.4609 11.334 97.3535 11.2144 97.2021 11.1069C97.0508 10.9995 96.8506 10.9019 96.6016 10.814C96.3525 10.7212 96.0425 10.6382 95.6714 10.5649C95.2173 10.4722 94.8022 10.3599 94.4263 10.228C94.0552 10.0962 93.7354 9.93994 93.4668 9.75928C93.2031 9.57373 92.998 9.35889 92.8516 9.11475C92.7051 8.86572 92.6318 8.57764 92.6318 8.25049C92.6318 7.92822 92.7075 7.62793 92.8589 7.34961C93.0103 7.06641 93.2227 6.81982 93.4961 6.60986C93.7695 6.3999 94.0942 6.23389 94.4702 6.11182C94.8511 5.98975 95.2686 5.92871 95.7227 5.92871C96.2109 5.92871 96.6504 5.99219 97.041 6.11914C97.4316 6.24609 97.7637 6.42187 98.0371 6.64648C98.3105 6.87109 98.5205 7.13477 98.667 7.4375C98.8184 7.73535 98.894 8.05762 98.894 8.4043H97.5391C97.5391 8.2334 97.4951 8.06738 97.4072 7.90625C97.3193 7.74023 97.1973 7.59375 97.041 7.4668C96.8848 7.33984 96.6943 7.2373 96.4697 7.15918C96.25 7.08105 96.001 7.04199 95.7227 7.04199C95.4346 7.04199 95.1807 7.07373 94.9609 7.13721C94.7461 7.20068 94.5654 7.28613 94.4189 7.39355C94.2773 7.50098 94.1699 7.62549 94.0967 7.76709C94.0234 7.90869 93.9868 8.05518 93.9868 8.20654C93.9868 8.36279 94.0161 8.50195 94.0747 8.62402C94.1333 8.74609 94.2334 8.85596 94.375 8.95361C94.5215 9.05127 94.7144 9.13916 94.9536 9.21729C95.1978 9.29541 95.5054 9.37109 95.8765 9.44434C96.3647 9.54688 96.8018 9.6665 97.1875 9.80322C97.5732 9.93506 97.8979 10.0962 98.1616 10.2866C98.4253 10.4722 98.6255 10.6895 98.7622 10.9385C98.9038 11.1875 98.9746 11.4756 98.9746 11.8027C98.9746 12.1543 98.894 12.4741 98.7329 12.7622C98.5767 13.0503 98.3569 13.2969 98.0737 13.502C97.7905 13.707 97.4512 13.8657 97.0557 13.978C96.6602 14.0903 96.228 14.1465 95.7593 14.1465C95.2222 14.1465 94.7437 14.0757 94.3237 13.9341C93.9038 13.7876 93.5474 13.5972 93.2544 13.3628C92.9663 13.1235 92.7441 12.8477 92.5879 12.5352C92.4365 12.2227 92.3608 11.8979 92.3608 11.561H93.7158C93.7354 11.8394 93.8086 12.0737 93.9355 12.2642C94.0674 12.4546 94.2285 12.6084 94.4189 12.7256C94.6143 12.8428 94.8291 12.9258 95.0635 12.9746C95.2979 13.0234 95.5298 13.0479 95.7593 13.0479C96.3306 13.0479 96.7822 12.9429 97.1143 12.7329C97.4463 12.5229 97.6147 12.2446 97.6196 11.8979ZM104.863 14.1465C104.307 14.1465 103.794 14.0513 103.325 13.8608C102.861 13.6704 102.463 13.4043 102.131 13.0625C101.799 12.7207 101.541 12.3154 101.355 11.8467C101.169 11.3779 101.077 10.8677 101.077 10.3159V10.0083C101.077 9.36865 101.179 8.79736 101.384 8.29443C101.589 7.78662 101.86 7.35938 102.197 7.0127C102.539 6.66113 102.925 6.39258 103.354 6.20703C103.789 6.02148 104.233 5.92871 104.688 5.92871C105.259 5.92871 105.757 6.02881 106.182 6.229C106.611 6.42432 106.968 6.69775 107.251 7.04932C107.534 7.396 107.744 7.80615 107.881 8.27979C108.022 8.75342 108.093 9.26611 108.093 9.81787V10.4258H102.432C102.446 10.7871 102.515 11.1265 102.637 11.4438C102.764 11.7612 102.935 12.0396 103.149 12.2788C103.369 12.5132 103.63 12.6987 103.933 12.8354C104.236 12.9722 104.57 13.0405 104.937 13.0405C105.42 13.0405 105.85 12.9429 106.226 12.7476C106.602 12.5522 106.914 12.2935 107.163 11.9712L107.991 12.6157C107.859 12.8159 107.693 13.0088 107.493 13.1943C107.297 13.375 107.07 13.5361 106.812 13.6777C106.553 13.8193 106.26 13.9316 105.933 14.0146C105.605 14.1025 105.249 14.1465 104.863 14.1465ZM104.688 7.04199C104.414 7.04199 104.155 7.09326 103.911 7.1958C103.667 7.29346 103.447 7.43994 103.252 7.63525C103.057 7.82568 102.891 8.0625 102.754 8.3457C102.622 8.62402 102.529 8.94629 102.476 9.3125H106.738V9.20996C106.724 8.94629 106.672 8.68506 106.584 8.42627C106.501 8.16748 106.377 7.93555 106.211 7.73047C106.045 7.52539 105.835 7.35938 105.581 7.23242C105.332 7.10547 105.034 7.04199 104.688 7.04199ZM111.587 6.0752L111.682 7.24707C111.97 6.83691 112.324 6.51709 112.744 6.2876C113.164 6.05322 113.633 5.93359 114.15 5.92871C114.565 5.92871 114.941 5.9873 115.278 6.10449C115.62 6.22168 115.911 6.40479 116.15 6.65381C116.389 6.90283 116.572 7.22021 116.699 7.60596C116.831 7.98682 116.897 8.44092 116.897 8.96826V14H115.542V8.99756C115.542 8.646 115.503 8.34814 115.425 8.104C115.347 7.85986 115.229 7.66211 115.073 7.51074C114.922 7.35938 114.734 7.24951 114.509 7.18115C114.29 7.11279 114.036 7.07861 113.748 7.07861C113.293 7.07861 112.893 7.19336 112.546 7.42285C112.205 7.64746 111.931 7.94531 111.726 8.31641V14H110.371V6.0752H111.587ZM121.753 10.3013L120.757 11.2607V14H119.395V2.75H120.757V9.63477L121.643 8.68262L124.243 6.0752H125.891L122.683 9.37842L126.382 14H124.661L121.753 10.3013ZM128.008 9.96436C128.008 9.39307 128.091 8.86328 128.257 8.375C128.423 7.88184 128.66 7.45459 128.967 7.09326C129.28 6.73193 129.658 6.44873 130.103 6.24365C130.547 6.03369 131.047 5.92871 131.604 5.92871C132.166 5.92871 132.668 6.03369 133.113 6.24365C133.562 6.44873 133.94 6.73193 134.248 7.09326C134.561 7.45459 134.8 7.88184 134.966 8.375C135.132 8.86328 135.215 9.39307 135.215 9.96436V10.1255C135.215 10.6968 135.132 11.2266 134.966 11.7148C134.8 12.2031 134.561 12.6279 134.248 12.9893C133.94 13.3506 133.564 13.6338 133.12 13.8389C132.676 14.0439 132.175 14.1465 131.619 14.1465C131.057 14.1465 130.552 14.0439 130.103 13.8389C129.658 13.6338 129.28 13.3506 128.967 12.9893C128.66 12.6279 128.423 12.2031 128.257 11.7148C128.091 11.2266 128.008 10.6968 128.008 10.1255V9.96436ZM129.363 10.1255C129.363 10.5161 129.409 10.8896 129.502 11.2461C129.595 11.5977 129.734 11.9077 129.919 12.1763C130.11 12.4448 130.347 12.6572 130.63 12.8135C130.913 12.9697 131.243 13.0479 131.619 13.0479C131.99 13.0479 132.314 12.9697 132.593 12.8135C132.876 12.6572 133.11 12.4448 133.296 12.1763C133.486 11.9077 133.628 11.5977 133.721 11.2461C133.813 10.8896 133.86 10.5161 133.86 10.1255V9.96436C133.86 9.57861 133.811 9.20996 133.713 8.8584C133.621 8.50195 133.479 8.18945 133.289 7.9209C133.103 7.65234 132.869 7.43994 132.585 7.28369C132.307 7.12256 131.98 7.04199 131.604 7.04199C131.228 7.04199 130.901 7.12256 130.623 7.28369C130.344 7.43994 130.11 7.65234 129.919 7.9209C129.734 8.18945 129.595 8.50195 129.502 8.8584C129.409 9.20996 129.363 9.57861 129.363 9.96436V10.1255Z" fill="white"/>
<path d="M1.72852 9.19336L1.34033 9.31787L1.72852 9.44971L6.21094 11.1782V12.6138L0 9.83789V8.76855L6.21094 6V7.43555L1.72852 9.19336Z" fill="#89C891"/>
<path d="M140.216 14.5796H139L143.453 3H144.662L140.216 14.5796Z" fill="#89C891"/>
<path d="M147.467 7.00635V5.60742L153.934 8.37598V9.44531L147.467 12.2212V10.8149L152.206 9.02783L152.645 8.90332L152.206 8.76416L147.467 7.00635Z" fill="#89C891"/>
</svg>
