<!-- Generated by IcoMoon.io -->
<svg version="1.1" xmlns="http://www.w3.org/2000/svg" width="32" height="32" viewBox="0 0 32 32">
<title>linkedin</title>
<path d="M26.324 26.33h-4.343v-6.807c0-1.623-0.033-3.712-2.265-3.712-2.264 0-2.609 1.766-2.609 3.593v6.926h-4.345v-13.997h4.172v1.907h0.057c0.583-1.098 2.001-2.26 4.12-2.26 4.4 0 5.215 2.898 5.215 6.667v7.684h-0.002zM7.857 10.419c-0.332 0-0.66-0.065-0.966-0.191s-0.585-0.313-0.819-0.547c-0.234-0.235-0.42-0.513-0.547-0.819s-0.191-0.635-0.191-0.966c0-0.499 0.149-0.987 0.426-1.401s0.672-0.738 1.133-0.928c0.461-0.191 0.968-0.24 1.458-0.143s0.939 0.338 1.291 0.691c0.353 0.353 0.593 0.803 0.69 1.292s0.047 0.997-0.145 1.457c-0.191 0.461-0.515 0.855-0.93 1.132s-0.903 0.425-1.402 0.424h0.002zM10.034 26.33h-4.356v-13.997h4.358v13.997h-0.002zM28.499 1.333h-25c-1.199 0-2.166 0.945-2.166 2.114v25.106c0 1.168 0.968 2.114 2.164 2.114h24.995c1.196 0 2.174-0.945 2.174-2.114v-25.106c0-1.168-0.978-2.114-2.174-2.114h0.006z"></path>
</svg>
