<!-- Generated by IcoMoon.io -->
<svg version="1.1" xmlns="http://www.w3.org/2000/svg" width="32" height="32" viewBox="0 0 32 32">
<title>skype</title>
<path d="M18.135 29.689c-2.155 0.337-4.359 0.16-6.432-0.516s-3.958-1.833-5.5-3.375c-1.542-1.542-2.698-3.427-3.375-5.5s-0.853-4.277-0.517-6.432c-0.849-1.616-1.16-3.461-0.886-5.266s1.118-3.475 2.409-4.765c1.291-1.291 2.961-2.135 4.765-2.409s3.65 0.036 5.266 0.886c2.155-0.337 4.359-0.16 6.432 0.517s3.958 1.832 5.5 3.375 2.698 3.427 3.375 5.5c0.676 2.074 0.853 4.277 0.517 6.432 0.849 1.616 1.16 3.461 0.886 5.266s-1.118 3.474-2.409 4.765c-1.291 1.291-2.961 2.135-4.765 2.409s-3.65-0.036-5.266-0.886zM16.085 24.402h-0.065c4.68 0 7.012-2.259 7.012-5.285 0-1.952-0.898-4.027-4.442-4.82l-3.232-0.717c-1.23-0.28-2.643-0.652-2.643-1.817s1.010-1.977 2.809-1.977c3.634 0 3.303 2.49 5.102 2.49 0.939 0 1.781-0.557 1.781-1.516 0-2.233-3.58-3.911-6.61-3.911-3.293 0-6.8 1.4-6.8 5.124 0 1.789 0.642 3.699 4.172 4.584l4.382 1.093c1.33 0.329 1.659 1.074 1.659 1.747 0 1.119-1.115 2.213-3.126 2.213-3.939 0-3.386-3.026-5.498-3.026-0.945 0-1.634 0.649-1.634 1.582 0 1.815 2.203 4.234 7.133 4.234v0.002z"></path>
</svg>
