<svg xmlns="http://www.w3.org/2000/svg" width="96" height="37" fill="none">
    <path fill="#8786EB" d="M96 .15l-.44.04c-.28.03-.72 0-1.3.1-1.63.23-3.2.78-4.64 1.6a19.54 19.54 0 0 0-5.66 5.44c-1.87 2.49-3.61 5.59-5.73 8.9a36.38 36.38 0 0 1-3.7 4.9 15.15 15.15 0 0 1-5.34 3.9c-1.08.45-2.21.75-3.37.89-.59.04-1.16.09-1.77.08-.6 0-1.2-.05-1.8-.14l-.91-.15-.89-.25-.44-.12-.44-.18-.87-.36a15.57 15.57 0 0 1-3.19-2.1 29.64 29.64 0 0 1-5.08-6.13c-1.5-2.26-2.88-4.7-4.44-7.01a39.3 39.3 0 0 0-2.5-3.42c-.9-1.12-1.92-2.13-3.03-3.01a13.2 13.2 0 0 0-3.72-2.1c-1.37-.46-2.8-.7-4.24-.7-1.44 0-2.86.24-4.23.7-1.34.48-2.6 1.2-3.73 2.09a19.14 19.14 0 0 0-3.02 3c-.9 1.1-1.73 2.24-2.5 3.43-1.57 2.34-2.95 4.75-4.45 7.02A29.96 29.96 0 0 1 9.5 22.7c-.98.84-2.05 1.54-3.2 2.1-.27.14-.57.25-.86.37l-.44.18-.44.12-.89.24-.91.16c-.6.08-1.2.13-1.8.14-.6 0-1.19-.04-1.78-.08a12.87 12.87 0 0 1-3.36-.89 15.1 15.1 0 0 1-5.33-3.9 36.01 36.01 0 0 1-3.7-4.91c-2.13-3.3-3.87-6.4-5.74-8.89a19.45 19.45 0 0 0-5.66-5.43A12.76 12.76 0 0 0-29.26.3c-.56-.09-1-.08-1.3-.11-.32-.04-.44-.04-.44-.04a12.4 12.4 0 0 1 6.42 1.63c2.25 1.39 4.2 3.24 5.75 5.43 1.88 2.49 3.65 5.59 5.77 8.87a36.8 36.8 0 0 0 3.7 4.87 14.9 14.9 0 0 0 5.25 3.82 12.78 12.78 0 0 0 13.38-2.32 29.44 29.44 0 0 0 5-6.04c1.5-2.26 2.88-4.7 4.45-7.03a38.3 38.3 0 0 1 2.52-3.45 19.28 19.28 0 0 1 3.08-3.06A13.45 13.45 0 0 1 28.13.72C29.54.26 31.01.02 32.5 0c1.48.01 2.94.26 4.34.73 1.37.5 2.66 1.23 3.8 2.15 1.14.9 2.17 1.92 3.08 3.05.9 1.1 1.75 2.26 2.53 3.46 1.56 2.36 2.94 4.77 4.44 7.02a29.23 29.23 0 0 0 5 6.04 12.79 12.79 0 0 0 13.37 2.32c2-.87 3.8-2.17 5.26-3.82a36.8 36.8 0 0 0 3.7-4.87c2.12-3.28 3.9-6.38 5.77-8.87 1.54-2.2 3.5-4.04 5.75-5.43A12.42 12.42 0 0 1 96 .15z"/>
    <path fill="#82D2F9" d="M73.27 15.77l4.46 12.6-10.78 7.83-4.46-12.59 10.78-7.84z"/>
    <path fill="#3D6AA0" d="M66.95 36.2l-9.9-3.03-4.46-12.6 9.9 3.04 4.46 12.6z"/>
    <path fill="#61AAD6" d="M62.5 23.61l-9.91-3.03 10.78-7.84 9.9 3.03-10.78 7.84z"/>
</svg>
