<svg width="22" height="25" viewBox="0 0 22 25" fill="none" xmlns="http://www.w3.org/2000/svg">
<path d="M8.89 0C9.1664 0.0889045 9.43417 0.202701 9.69 0.339996L11.92 1.42L20.01 5.42H20.1V5.64C20.58 8.44 21.1 11.64 21.7 15.1V15.22L21.62 15.31L12.93 24.31L12.8 24.45L12.63 24.37L1.63 18.72L1.52 18.66V18.54C0.960004 15.06 0.45 11.87 0 9.06V8.96L0.0700073 8.89L6.46001 2.34L8.24001 0.580002C8.43232 0.361 8.65059 0.166231 8.89 0C8.71764 0.234636 8.52705 0.455315 8.32001 0.659996L6.62001 2.5L0.330002 9.1L0.389999 8.93C0.859999 11.73 1.39001 14.93 1.99001 18.39L1.86 18.22L12.86 23.83H12.56L21.27 14.88C21.27 14.95 21.27 15.03 21.21 15.09L19.72 5.64L19.82 5.78L11.82 1.59L9.63 0.409996C9.3738 0.291305 9.12648 0.154287 8.89 0Z" fill="#8786EB"/>
<path d="M1.75 18.43C2.38962 17.5577 3.0986 16.7383 3.87001 15.98C5.23001 14.51 7.13 12.51 9.25 10.32L10.25 9.32001C10.2327 9.39512 10.2093 9.4687 10.18 9.54001C9.75001 6.87001 9.39001 4.54001 9.18001 2.79001C9.00021 1.88422 8.90646 0.963451 8.90001 0.0400085C9.18186 0.91767 9.38926 1.81751 9.52 2.73C9.84 4.42 10.26 6.73001 10.71 9.46001V9.59L10.62 9.68001L9.62001 10.68C7.49001 12.87 5.55 14.84 4.13 16.24C3.39651 17.0325 2.60062 17.7648 1.75 18.43Z" fill="#8786EB"/>
<path d="M10.46 9.46002C12.4063 10.1631 14.2897 11.0295 16.09 12.05C17.9694 12.8998 19.7756 13.9032 21.49 15.05C19.5399 14.3482 17.6531 13.4817 15.85 12.46C13.9708 11.6161 12.1675 10.6124 10.46 9.46002Z" fill="#8786EB"/>
</svg>
