<svg xmlns="http://www.w3.org/2000/svg" viewBox="0 0 22.7 21">
  <title>cube-sm-rotate</title>
  <path d="M17.84,0a4.38,4.38,0,0,1,.37.79l1,2.28,3.45,8.33.07.06-.14.17c-1.49,2.42-3.2,5.17-5,8.17l-.08.09-.12,0L4.86,21l-.19,0-.07-.18L0,9.33l0-.12.08-.09L5.18,1,5.25.91h.09L14.47.18,17,0a3.7,3.7,0,0,1,.88,0A4.34,4.34,0,0,1,17,.14L14.48.41,5.4,1.23l.16-.09c-1.49,2.42-3.2,5.18-5,8.18l0-.22L5.13,20.57l-.23-.2,12.45-1c-.05.06-.1.12-.18.12l5.1-8.09,0,.17L19,3.15,18.12.82a5.84,5.84,0,0,1-.28-.8Z" fill="#8786eb"/>
  <path d="M.32,9.19a19.38,19.38,0,0,1,3.21-.45c2-.21,4.74-.46,7.78-.71l1.41-.1a.82.82,0,0,1-.2.12c1.44-2.29,2.7-4.28,3.7-5.74A14.13,14.13,0,0,1,17.82.06a16.7,16.7,0,0,1-1.31,2.43C15.64,4,14.43,6,13,8.34l-.08.1h-.13l-1.41.09c-3,.24-5.8.45-7.79.57a20.63,20.63,0,0,1-3.24.08Z" fill="#8786eb"/>
  <path d="M12.79,8.17a38.19,38.19,0,0,1,2.53,5.66,37.33,37.33,0,0,1,2.08,5.82A36.86,36.86,0,0,1,14.87,14,35,35,0,0,1,12.79,8.17Z" fill="#8786eb"/>
</svg>
