<!-- Generated by IcoMoon.io -->
<svg version="1.1" xmlns="http://www.w3.org/2000/svg" width="34" height="32" viewBox="0 0 34 32">
<title>github</title>
<path d="M16.842 1.403c-8.53 0-15.439 6.909-15.439 15.439-0.002 3.241 1.017 6.4 2.912 9.030s4.57 4.595 7.645 5.619c0.772 0.134 1.061-0.329 1.061-0.735 0-0.366-0.020-1.581-0.020-2.875-3.878 0.715-4.882-0.945-5.19-1.814-0.174-0.445-0.926-1.814-1.582-2.182-0.54-0.289-1.312-1.003-0.020-1.022 1.217-0.020 2.084 1.119 2.374 1.582 1.389 2.334 3.61 1.678 4.496 1.274 0.136-1.003 0.54-1.678 0.985-2.064-3.435-0.386-7.025-1.718-7.025-7.624 0-1.68 0.597-3.068 1.582-4.15-0.154-0.386-0.695-1.968 0.154-4.091 0 0 1.292-0.404 4.246 1.584 1.257-0.349 2.555-0.524 3.86-0.522 1.312 0 2.625 0.173 3.86 0.52 2.952-2.007 4.246-1.581 4.246-1.581 0.849 2.123 0.309 3.705 0.154 4.091 0.984 1.081 1.582 2.45 1.582 4.148 0 5.925-3.608 7.238-7.043 7.624 0.559 0.482 1.042 1.408 1.042 2.856 0 2.064-0.020 3.724-0.020 4.246 0 0.405 0.29 0.886 1.062 0.732 3.065-1.035 5.728-3.004 7.614-5.632s2.902-5.78 2.903-9.015c0-8.53-6.909-15.439-15.438-15.439z"></path>
</svg>
