<svg width="144" height="12" viewBox="0 0 144 12" fill="none" xmlns="http://www.w3.org/2000/svg">
<path d="M11.9306 6.52268V10.524H10.6631V0.548124H13.897C14.3447 0.55726 14.7672 0.628059 15.1646 0.760522C15.5665 0.892986 15.9182 1.08483 16.2197 1.33605C16.5212 1.58728 16.7587 1.89788 16.9323 2.26786C17.1104 2.63785 17.1995 3.06264 17.1995 3.54225C17.1995 4.02186 17.1104 4.44666 16.9323 4.81664C16.7587 5.18206 16.5212 5.49038 16.2197 5.7416C15.9182 5.99283 15.5665 6.18467 15.1646 6.31713C14.7672 6.4496 14.3447 6.51811 13.897 6.52268H11.9306ZM11.9306 5.48124H13.897C14.1894 5.47668 14.4588 5.431 14.7055 5.34421C14.9522 5.25286 15.1668 5.12496 15.3495 4.96052C15.5323 4.79609 15.6739 4.59739 15.7743 4.36444C15.8794 4.12692 15.9319 3.85742 15.9319 3.55596C15.9319 3.25449 15.8794 2.98271 15.7743 2.74062C15.6739 2.49853 15.5323 2.29299 15.3495 2.12398C15.1714 1.95498 14.9567 1.8248 14.7055 1.73344C14.4588 1.64209 14.1894 1.59413 13.897 1.58956H11.9306V5.48124Z" fill="white"/>
<path d="M23.8455 10.524C23.7952 10.4281 23.7541 10.3093 23.7221 10.1677C23.6947 10.0215 23.6742 9.8708 23.6605 9.7155C23.5326 9.8434 23.3887 9.96444 23.2288 10.0786C23.0735 10.1928 22.9 10.2933 22.7081 10.3801C22.5208 10.4669 22.3199 10.5354 22.1052 10.5856C21.8905 10.6359 21.6621 10.661 21.42 10.661C21.0272 10.661 20.6709 10.6039 20.3512 10.4897C20.036 10.3755 19.7665 10.2225 19.5427 10.0307C19.3234 9.83426 19.1522 9.60359 19.0288 9.33867C18.9101 9.06917 18.8507 8.77912 18.8507 8.46852C18.8507 8.06199 18.9306 7.70571 19.0905 7.39968C19.2549 7.09364 19.4856 6.84013 19.7825 6.63915C20.0794 6.43361 20.4357 6.28059 20.8513 6.1801C21.2716 6.07961 21.7398 6.02937 22.2559 6.02937H23.6399V5.44698C23.6399 5.22317 23.5988 5.02219 23.5166 4.84405C23.4344 4.66591 23.3179 4.51517 23.1672 4.39185C23.0164 4.26395 22.8314 4.16574 22.6122 4.09723C22.3975 4.02871 22.1554 3.99446 21.8859 3.99446C21.6347 3.99446 21.4086 4.02643 21.2076 4.09038C21.0112 4.15433 20.8445 4.23883 20.7075 4.34388C20.5704 4.44894 20.4631 4.57455 20.3854 4.72072C20.3124 4.86232 20.2758 5.01077 20.2758 5.16607H19.0014C19.006 4.89658 19.0745 4.63165 19.207 4.37129C19.344 4.11093 19.5381 3.87798 19.7894 3.67243C20.0451 3.46232 20.3535 3.29331 20.7143 3.16542C21.0797 3.03752 21.4931 2.97357 21.9544 2.97357C22.3747 2.97357 22.7652 3.0261 23.1261 3.13116C23.4869 3.23165 23.7975 3.38695 24.0579 3.59707C24.3228 3.80261 24.5306 4.06069 24.6814 4.37129C24.8321 4.68189 24.9075 5.04503 24.9075 5.46069V8.90702C24.9075 9.15368 24.9303 9.41632 24.976 9.69495C25.0217 9.96901 25.0856 10.2088 25.1678 10.4144V10.524H23.8455ZM21.605 9.55792C21.8517 9.55792 22.0823 9.52594 22.297 9.462C22.5117 9.39805 22.7058 9.31354 22.8794 9.20849C23.0575 9.10343 23.2106 8.98467 23.3385 8.85221C23.4664 8.71518 23.5668 8.57358 23.6399 8.42741V6.92692H22.4615C21.7215 6.92692 21.146 7.03655 20.7349 7.2558C20.3238 7.47504 20.1182 7.81991 20.1182 8.29038C20.1182 8.47309 20.1479 8.64209 20.2073 8.79739C20.2712 8.9527 20.3649 9.08744 20.4882 9.20164C20.6115 9.31126 20.7668 9.39805 20.9541 9.462C21.1414 9.52594 21.3584 9.55792 21.605 9.55792Z" fill="white"/>
<path d="M30.3065 8.70147L30.423 9.16053L30.5463 8.70147L32.6223 3.11061H33.9173L30.8957 10.524H29.9297L26.8807 3.11061H28.1825L30.3065 8.70147Z" fill="white"/>
<path d="M39.1039 10.661C38.5832 10.661 38.1036 10.5719 37.6651 10.3938C37.2311 10.2157 36.8589 9.96673 36.5483 9.64699C36.2376 9.32725 35.9956 8.94813 35.822 8.50963C35.6484 8.07113 35.5616 7.5938 35.5616 7.07765V6.78989C35.5616 6.19152 35.6576 5.6571 35.8494 5.18663C36.0412 4.71158 36.2947 4.31191 36.6099 3.9876C36.9297 3.65873 37.2905 3.40751 37.6925 3.23393C38.099 3.06036 38.5146 2.97357 38.9394 2.97357C39.4739 2.97357 39.9398 3.06721 40.3372 3.25449C40.7391 3.4372 41.0726 3.69299 41.3375 4.02186C41.6024 4.34617 41.7988 4.72986 41.9267 5.17292C42.0592 5.61599 42.1254 6.0956 42.1254 6.61175V7.18043H36.8292C36.8429 7.51844 36.9068 7.83589 37.021 8.13279C37.1398 8.42969 37.2996 8.69005 37.5006 8.91387C37.7062 9.13312 37.9505 9.30669 38.2337 9.43459C38.5169 9.56248 38.8298 9.62643 39.1724 9.62643C39.6246 9.62643 40.0266 9.53508 40.3783 9.35237C40.73 9.16966 41.0223 8.92757 41.2553 8.62611L42.0295 9.22904C41.9062 9.41632 41.7509 9.59674 41.5636 9.77032C41.3809 9.93932 41.1685 10.0901 40.9264 10.2225C40.6843 10.355 40.4102 10.46 40.1042 10.5377C39.7982 10.6199 39.4647 10.661 39.1039 10.661ZM38.9394 4.01501C38.6837 4.01501 38.4416 4.06297 38.2132 4.15889C37.9848 4.25025 37.7792 4.38728 37.5965 4.56999C37.4138 4.74813 37.2585 4.96966 37.1306 5.23459C37.0073 5.49495 36.9205 5.79641 36.8703 6.13899H40.8579V6.04307C40.8442 5.79641 40.7962 5.55204 40.714 5.30995C40.6363 5.06787 40.5199 4.8509 40.3646 4.65906C40.2093 4.46721 40.0129 4.31191 39.7753 4.19315C39.5424 4.07439 39.2638 4.01501 38.9394 4.01501Z" fill="white"/>
<path d="M44.4549 0H48.2439V9.42774H50.6625V10.524H44.4549V9.42774H46.9763V1.1031H44.4549V0Z" fill="white"/>
<path d="M59.4119 1.63067H56.3287V10.524H55.0954V1.63067H52.0122V0.548124H59.4119V1.63067Z" fill="white"/>
<path d="M65.9825 10.524C65.9323 10.4281 65.8912 10.3093 65.8592 10.1677C65.8318 10.0215 65.8112 9.8708 65.7975 9.7155C65.6696 9.8434 65.5258 9.96444 65.3659 10.0786C65.2106 10.1928 65.037 10.2933 64.8452 10.3801C64.6579 10.4669 64.4569 10.5354 64.2422 10.5856C64.0275 10.6359 63.7992 10.661 63.5571 10.661C63.1642 10.661 62.808 10.6039 62.4882 10.4897C62.1731 10.3755 61.9036 10.2225 61.6797 10.0307C61.4605 9.83426 61.2892 9.60359 61.1659 9.33867C61.0471 9.06917 60.9877 8.77912 60.9877 8.46852C60.9877 8.06199 61.0677 7.70571 61.2275 7.39968C61.392 7.09364 61.6227 6.84013 61.9196 6.63915C62.2165 6.43361 62.5727 6.28059 62.9884 6.1801C63.4086 6.07961 63.8768 6.02937 64.393 6.02937H65.777V5.44698C65.777 5.22317 65.7359 5.02219 65.6536 4.84405C65.5714 4.66591 65.455 4.51517 65.3042 4.39185C65.1535 4.26395 64.9685 4.16574 64.7492 4.09723C64.5346 4.02871 64.2925 3.99446 64.023 3.99446C63.7718 3.99446 63.5457 4.02643 63.3447 4.09038C63.1483 4.15433 62.9815 4.23883 62.8445 4.34388C62.7075 4.44894 62.6001 4.57455 62.5225 4.72072C62.4494 4.86232 62.4129 5.01077 62.4129 5.16607H61.1385C61.143 4.89658 61.2116 4.63165 61.344 4.37129C61.4811 4.11093 61.6752 3.87798 61.9264 3.67243C62.1822 3.46232 62.4905 3.29331 62.8514 3.16542C63.2168 3.03752 63.6302 2.97357 64.0915 2.97357C64.5117 2.97357 64.9023 3.0261 65.2631 3.13116C65.624 3.23165 65.9346 3.38695 66.1949 3.59707C66.4598 3.80261 66.6677 4.06069 66.8184 4.37129C66.9691 4.68189 67.0445 5.04503 67.0445 5.46069V8.90702C67.0445 9.15368 67.0674 9.41632 67.113 9.69495C67.1587 9.96901 67.2227 10.2088 67.3049 10.4144V10.524H65.9825ZM63.7421 9.55792C63.9887 9.55792 64.2194 9.52594 64.4341 9.462C64.6488 9.39805 64.8429 9.31354 65.0165 9.20849C65.1946 9.10343 65.3476 8.98467 65.4755 8.85221C65.6034 8.71518 65.7039 8.57358 65.777 8.42741V6.92692H64.5985C63.8585 6.92692 63.283 7.03655 62.8719 7.2558C62.4608 7.47504 62.2553 7.81991 62.2553 8.29038C62.2553 8.47309 62.285 8.64209 62.3443 8.79739C62.4083 8.9527 62.5019 9.08744 62.6253 9.20164C62.7486 9.31126 62.9039 9.39805 63.0912 9.462C63.2784 9.52594 63.4954 9.55792 63.7421 9.55792Z" fill="white"/>
<path d="M74.3962 2.97357C74.515 2.97357 74.6383 2.97814 74.7662 2.98728C74.8941 2.99184 75.0152 3.00326 75.1293 3.02153C75.2481 3.03524 75.3554 3.05351 75.4514 3.07635C75.5519 3.09919 75.6341 3.12431 75.698 3.15171L75.5267 4.39185C75.2801 4.33703 75.0448 4.29821 74.821 4.27537C74.6018 4.24796 74.3711 4.23426 74.129 4.23426C73.5352 4.23426 73.0533 4.36901 72.6833 4.6385C72.3179 4.908 72.0484 5.28483 71.8749 5.76901V10.524H70.6005V3.11061H71.8063L71.868 4.28907C72.1695 3.88255 72.5303 3.56281 72.9506 3.32985C73.3753 3.09233 73.8572 2.97357 74.3962 2.97357Z" fill="white"/>
<path d="M82.8373 10.524C82.7871 10.4281 82.746 10.3093 82.714 10.1677C82.6866 10.0215 82.6661 9.8708 82.6524 9.7155C82.5245 9.8434 82.3806 9.96444 82.2207 10.0786C82.0654 10.1928 81.8918 10.2933 81.7 10.3801C81.5127 10.4669 81.3117 10.5354 81.097 10.5856C80.8824 10.6359 80.654 10.661 80.4119 10.661C80.0191 10.661 79.6628 10.6039 79.343 10.4897C79.0279 10.3755 78.7584 10.2225 78.5346 10.0307C78.3153 9.83426 78.144 9.60359 78.0207 9.33867C77.9019 9.06917 77.8426 8.77912 77.8426 8.46852C77.8426 8.06199 77.9225 7.70571 78.0824 7.39968C78.2468 7.09364 78.4775 6.84013 78.7744 6.63915C79.0713 6.43361 79.4276 6.28059 79.8432 6.1801C80.2634 6.07961 80.7316 6.02937 81.2478 6.02937H82.6318V5.44698C82.6318 5.22317 82.5907 5.02219 82.5085 4.84405C82.4262 4.66591 82.3098 4.51517 82.159 4.39185C82.0083 4.26395 81.8233 4.16574 81.6041 4.09723C81.3894 4.02871 81.1473 3.99446 80.8778 3.99446C80.6266 3.99446 80.4005 4.02643 80.1995 4.09038C80.0031 4.15433 79.8364 4.23883 79.6993 4.34388C79.5623 4.44894 79.455 4.57455 79.3773 4.72072C79.3042 4.86232 79.2677 5.01077 79.2677 5.16607H77.9933C77.9979 4.89658 78.0664 4.63165 78.1988 4.37129C78.3359 4.11093 78.53 3.87798 78.7812 3.67243C79.037 3.46232 79.3453 3.29331 79.7062 3.16542C80.0716 3.03752 80.485 2.97357 80.9463 2.97357C81.3665 2.97357 81.7571 3.0261 82.1179 3.13116C82.4788 3.23165 82.7894 3.38695 83.0497 3.59707C83.3147 3.80261 83.5225 4.06069 83.6732 4.37129C83.824 4.68189 83.8993 5.04503 83.8993 5.46069V8.90702C83.8993 9.15368 83.9222 9.41632 83.9678 9.69495C84.0135 9.96901 84.0775 10.2088 84.1597 10.4144V10.524H82.8373ZM80.5969 9.55792C80.8435 9.55792 81.0742 9.52594 81.2889 9.462C81.5036 9.39805 81.6977 9.31354 81.8713 9.20849C82.0494 9.10343 82.2024 8.98467 82.3303 8.85221C82.4582 8.71518 82.5587 8.57358 82.6318 8.42741V6.92692H81.4533C80.7134 6.92692 80.1378 7.03655 79.7267 7.2558C79.3156 7.47504 79.1101 7.81991 79.1101 8.29038C79.1101 8.47309 79.1398 8.64209 79.1992 8.79739C79.2631 8.9527 79.3568 9.08744 79.4801 9.20164C79.6034 9.31126 79.7587 9.39805 79.946 9.462C80.1333 9.52594 80.3502 9.55792 80.5969 9.55792Z" fill="white"/>
<path d="M91.3196 8.55759C91.3196 8.40686 91.2899 8.27211 91.2305 8.15335C91.1711 8.03002 91.0706 7.91811 90.929 7.81762C90.7874 7.71713 90.6002 7.62578 90.3672 7.54356C90.1342 7.45677 89.8442 7.37912 89.4971 7.31061C89.0723 7.22382 88.684 7.11876 88.3323 6.99544C87.9851 6.87211 87.686 6.72594 87.4347 6.55694C87.1881 6.38336 86.9962 6.18238 86.8592 5.954C86.7222 5.72105 86.6537 5.45155 86.6537 5.14552C86.6537 4.84405 86.7245 4.56313 86.8661 4.30278C87.0077 4.03785 87.2064 3.80718 87.4621 3.61077C87.7179 3.41436 88.0217 3.25906 88.3734 3.14486C88.7297 3.03067 89.1202 2.97357 89.545 2.97357C90.0018 2.97357 90.4129 3.03295 90.7783 3.15171C91.1437 3.27047 91.4543 3.43491 91.7101 3.64503C91.9659 3.85514 92.1623 4.1018 92.2993 4.38499C92.4409 4.66362 92.5117 4.96509 92.5117 5.2894H91.2442C91.2442 5.12953 91.2031 4.97423 91.1209 4.82349C91.0387 4.66819 90.9245 4.53116 90.7783 4.4124C90.6321 4.29364 90.454 4.19772 90.2439 4.12464C90.0383 4.05155 89.8054 4.01501 89.545 4.01501C89.2755 4.01501 89.038 4.0447 88.8325 4.10408C88.6315 4.16346 88.4625 4.2434 88.3254 4.34388C88.193 4.44437 88.0925 4.56085 88.024 4.69331C87.9555 4.82578 87.9212 4.96281 87.9212 5.10441C87.9212 5.25057 87.9486 5.38075 88.0034 5.49495C88.0582 5.60914 88.1519 5.71191 88.2843 5.80327C88.4214 5.89462 88.6018 5.97684 88.8256 6.04992C89.054 6.123 89.3418 6.1938 89.6889 6.26232C90.1457 6.35824 90.5545 6.47015 90.9153 6.59805C91.2762 6.72137 91.5799 6.87211 91.8266 7.05025C92.0732 7.22382 92.2605 7.42708 92.3884 7.66004C92.5209 7.89299 92.5871 8.16248 92.5871 8.46852C92.5871 8.79739 92.5117 9.09658 92.361 9.36607C92.2148 9.63557 92.0093 9.86624 91.7444 10.0581C91.4794 10.2499 91.162 10.3984 90.792 10.5034C90.422 10.6085 90.0178 10.661 89.5793 10.661C89.0768 10.661 88.6292 10.5948 88.2364 10.4623C87.8435 10.3253 87.5101 10.1472 87.236 9.9279C86.9665 9.70408 86.7587 9.44601 86.6125 9.15368C86.4709 8.86134 86.4001 8.55759 86.4001 8.24242H87.6677C87.686 8.50278 87.7545 8.72203 87.8732 8.90017C87.9966 9.07831 88.1473 9.22219 88.3254 9.33182C88.5081 9.44144 88.7091 9.51909 88.9284 9.56477C89.1476 9.61045 89.3646 9.63328 89.5793 9.63328C90.1137 9.63328 90.5362 9.53508 90.8468 9.33867C91.1574 9.14226 91.315 8.8819 91.3196 8.55759Z" fill="white"/>
<path d="M98.0957 10.661C97.575 10.661 97.0954 10.5719 96.6569 10.3938C96.223 10.2157 95.8507 9.96673 95.5401 9.64699C95.2295 9.32725 94.9874 8.94813 94.8139 8.50963C94.6403 8.07113 94.5535 7.5938 94.5535 7.07765V6.78989C94.5535 6.19152 94.6494 5.6571 94.8413 5.18663C95.0331 4.71158 95.2866 4.31191 95.6018 3.9876C95.9215 3.65873 96.2824 3.40751 96.6843 3.23393C97.0909 3.06036 97.5065 2.97357 97.9313 2.97357C98.4657 2.97357 98.9316 3.06721 99.329 3.25449C99.731 3.4372 100.064 3.69299 100.329 4.02186C100.594 4.34617 100.791 4.72986 100.919 5.17292C101.051 5.61599 101.117 6.0956 101.117 6.61175V7.18043H95.821C95.8347 7.51844 95.8987 7.83589 96.0129 8.13279C96.1316 8.42969 96.2915 8.69005 96.4925 8.91387C96.698 9.13312 96.9424 9.30669 97.2256 9.43459C97.5088 9.56248 97.8217 9.62643 98.1643 9.62643C98.6165 9.62643 99.0184 9.53508 99.3701 9.35237C99.7219 9.16966 100.014 8.92757 100.247 8.62611L101.021 9.22904C100.898 9.41632 100.743 9.59674 100.555 9.77032C100.373 9.93932 100.16 10.0901 99.9183 10.2225C99.6762 10.355 99.4021 10.46 99.0961 10.5377C98.79 10.6199 98.4566 10.661 98.0957 10.661ZM97.9313 4.01501C97.6755 4.01501 97.4334 4.06297 97.205 4.15889C96.9767 4.25025 96.7711 4.38728 96.5884 4.56999C96.4057 4.74813 96.2504 4.96966 96.1225 5.23459C95.9992 5.49495 95.9124 5.79641 95.8621 6.13899H99.8497V6.04307C99.836 5.79641 99.7881 5.55204 99.7059 5.30995C99.6282 5.06787 99.5117 4.8509 99.3564 4.65906C99.2011 4.46721 99.0047 4.31191 98.7672 4.19315C98.5342 4.07439 98.2556 4.01501 97.9313 4.01501Z" fill="white"/>
<path d="M104.385 3.11061L104.475 4.20685C104.744 3.82317 105.075 3.52398 105.468 3.3093C105.861 3.09005 106.299 2.97814 106.784 2.97357C107.172 2.97357 107.523 3.02839 107.839 3.13801C108.158 3.24764 108.43 3.41893 108.654 3.65188C108.878 3.88483 109.049 4.18173 109.168 4.54258C109.291 4.89886 109.353 5.32366 109.353 5.81697V10.524H108.085V5.84437C108.085 5.5155 108.049 5.23687 107.976 5.00849C107.903 4.7801 107.793 4.59511 107.647 4.45351C107.505 4.31191 107.329 4.20914 107.119 4.14519C106.914 4.08124 106.676 4.04927 106.407 4.04927C105.982 4.04927 105.607 4.15661 105.283 4.37129C104.963 4.58141 104.707 4.86003 104.516 5.20718V10.524H103.248V3.11061H104.385Z" fill="white"/>
<path d="M113.895 7.06395L112.964 7.9615V10.524H111.689V0H112.964V6.44046L113.793 5.54976L116.225 3.11061H117.767L114.766 6.20066L118.226 10.524H116.616L113.895 7.06395Z" fill="white"/>
<path d="M119.747 6.74878C119.747 6.21436 119.824 5.71876 119.98 5.26199C120.135 4.80065 120.356 4.40098 120.644 4.06297C120.937 3.72496 121.291 3.46003 121.706 3.26819C122.122 3.07178 122.59 2.97357 123.111 2.97357C123.636 2.97357 124.107 3.07178 124.522 3.26819C124.942 3.46003 125.296 3.72496 125.584 4.06297C125.877 4.40098 126.1 4.80065 126.256 5.26199C126.411 5.71876 126.489 6.21436 126.489 6.74878V6.89951C126.489 7.43394 126.411 7.92953 126.256 8.3863C126.1 8.84307 125.877 9.24046 125.584 9.57847C125.296 9.91648 124.945 10.1814 124.529 10.3733C124.113 10.5651 123.645 10.661 123.124 10.661C122.599 10.661 122.126 10.5651 121.706 10.3733C121.291 10.1814 120.937 9.91648 120.644 9.57847C120.356 9.24046 120.135 8.84307 119.98 8.3863C119.824 7.92953 119.747 7.43394 119.747 6.89951V6.74878ZM121.014 6.89951C121.014 7.26493 121.058 7.61436 121.144 7.9478C121.231 8.27668 121.361 8.56673 121.535 8.81795C121.713 9.06917 121.935 9.26787 122.2 9.41403C122.464 9.5602 122.773 9.63328 123.124 9.63328C123.472 9.63328 123.775 9.5602 124.036 9.41403C124.301 9.26787 124.52 9.06917 124.693 8.81795C124.872 8.56673 125.004 8.27668 125.091 7.9478C125.178 7.61436 125.221 7.26493 125.221 6.89951V6.74878C125.221 6.38793 125.175 6.04307 125.084 5.7142C124.997 5.38075 124.865 5.08842 124.687 4.8372C124.513 4.58597 124.294 4.38728 124.029 4.24111C123.769 4.09038 123.462 4.01501 123.111 4.01501C122.759 4.01501 122.453 4.09038 122.193 4.24111C121.932 4.38728 121.713 4.58597 121.535 4.8372C121.361 5.08842 121.231 5.38075 121.144 5.7142C121.058 6.04307 121.014 6.38793 121.014 6.74878V6.89951Z" fill="white"/>
<path d="M1.61697 6.02753L1.25383 6.14401L1.61697 6.26733L5.81012 7.8843V9.2272L0 6.63047V5.63014L5.81012 3.04025V4.38316L1.61697 6.02753Z" fill="#89C891"/>
<path d="M131.167 11.0662H130.03L134.196 0.233887H135.326L131.167 11.0662Z" fill="#89C891"/>
<path d="M137.95 3.98169V2.67304L144 5.26293V6.26325L137.95 8.85999V7.54449L142.383 5.87271L142.794 5.75624L142.383 5.62606L137.95 3.98169Z" fill="#89C891"/>
</svg>
